<?xml version="1.0" encoding="iso-8859-1"?>
<!-- Uploaded to: SVG Repo, www.svgrepo.com, Generator: SVG Repo Mixer Tools -->
<svg fill="#000000" height="800px" width="800px" version="1.1" id="Capa_1" xmlns="http://www.w3.org/2000/svg" xmlns:xlink="http://www.w3.org/1999/xlink" 
	 viewBox="0 0 512 512" xml:space="preserve">
<g>
	<g>
		<path d="M504.396,25.347H139.409c-4.199,0-7.604,3.405-7.604,7.604c0,4.199,3.405,7.604,7.604,7.604h357.383v23.823h-31.427
			H46.635H15.208V40.555h39.037c4.199,0,7.604-3.405,7.604-7.604c0-4.199-3.405-7.604-7.604-7.604H7.604
			C3.405,25.347,0,28.751,0,32.951v39.031v377.159v29.909c0,4.199,3.405,7.604,7.604,7.604h496.792c4.2,0,7.604-3.405,7.604-7.604
			v-29.909V71.982V32.951C512,28.751,508.596,25.347,504.396,25.347z M472.969,295.034V267.66v-0.016c0-0.016,0-0.033,0-0.05V79.586
			h23.823v361.952h-23.823V295.034z M433.414,79.586h24.348v121.492C432.278,154.061,432.462,98.582,433.414,79.586z
			 M396.798,79.584h21.361v0.001c-0.475,9.591-0.703,26.572,1.696,47.018c3.339,28.463,12.647,69.09,37.907,102.559v2.034
			c-29.456-19.046-48.624-49.788-57.032-91.592C395.531,113.753,396.084,90.532,396.798,79.584z M381.539,79.584L381.539,79.584
			c-0.754,12.136-1.138,35.791,4.192,62.572c9.812,49.311,34.677,86.109,72.031,106.75v1.121
			c-10.323-4.056-27.793-12.642-45.082-29.042c-34.592-32.814-52.796-80.364-54.183-141.401H381.539z M427.006,302.638h15.948
			l-46.977,138.899h-15.948L427.006,302.638z M363.974,441.537h-16.773l46.977-138.899h16.773L363.974,441.537z M457.761,306.323
			v135.214h-45.73L457.761,306.323z M453.553,287.43h-31.815c-0.003,0-0.007,0-0.01,0h-25.402v-12.166h61.435v12.166H453.553z
			 M343.282,79.586c0.779,34.956,6.962,66.304,18.417,93.268c9.919,23.348,23.773,43.465,41.179,59.793
			c10.429,9.782,20.844,17.001,30.039,22.276c-45.69-12-112.869-50.868-115.497-175.337H343.282z M302.215,79.584
			c0.846,40.811,8.535,76.155,22.899,105.144c12.529,25.286,30.148,45.869,52.365,61.175c8.366,5.764,16.812,10.409,25.055,14.153
			h-12.547c-5.474-1.948-32.363-12.364-58.863-37.51c-37.809-35.878-57.729-83.95-59.297-142.962H302.215z M240.179,79.586
			c-0.983,36.16-9.018,68.606-23.929,96.536c-1.978,3.705-0.578,8.312,3.127,10.289c1.141,0.609,2.366,0.897,3.575,0.897
			c2.717,0,5.345-1.46,6.715-4.024c16.09-30.14,24.731-64.995,25.728-103.698h1.219c0.874,33.848,7.602,64.834,20.047,92.201
			c10.748,23.63,25.734,44.594,44.545,62.31c24.747,23.307,49.356,34.698,59.915,38.878v20.81l-49.972,147.753H180.854
			l-49.972-147.753v-20.81c10.559-4.18,35.169-15.571,59.915-38.878c3.057-2.879,3.202-7.691,0.322-10.749
			c-2.879-3.057-7.691-3.201-10.749-0.322c-26.333,24.8-52.919,35.097-58.357,37.031h-12.547
			c8.243-3.744,16.689-8.389,25.055-14.153c22.218-15.307,39.836-35.89,52.366-61.175c14.364-28.988,22.054-64.333,22.898-105.143
			H240.179z M69.046,302.638h15.948l46.977,138.899h-15.948L69.046,302.638z M99.97,441.537H54.239V306.324L99.97,441.537z
			 M101.049,302.638h16.774L164.8,441.537h-16.772L101.049,302.638z M194.58,79.584v0.001
			c-2.628,124.468-69.807,163.337-115.497,175.337c9.195-5.274,19.61-12.493,30.039-22.276
			c17.406-16.327,31.26-36.445,41.179-59.794c11.456-26.964,17.638-58.311,18.418-93.268H194.58z M54.239,79.586h24.348
			c0.952,18.997,1.136,74.476-24.348,121.492V79.586z M54.239,229.164c25.259-33.47,34.569-74.097,37.907-102.559
			c2.399-20.446,2.172-37.427,1.696-47.018h21.368v-0.001c0.715,10.862,1.27,33.837-3.856,59.603
			c-8.36,42.016-27.557,72.897-57.115,92.009V229.164z M54.239,248.907c37.353-20.641,62.219-57.439,72.031-106.75
			c5.329-26.782,4.946-50.437,4.192-62.57h23.042c-1.387,61.035-19.591,108.587-54.183,141.4
			c-17.288,16.399-34.759,24.987-45.082,29.043V248.907z M54.238,275.263h0.001h61.435v12.166H90.266c-0.001,0-0.002,0-0.003,0
			H58.447h-4.209V275.263z M15.208,79.586h23.823v188.008c0,0.016,0,0.033,0,0.05v0.016v27.374v146.503H15.208V79.586z
			 M496.794,471.446h-0.002H15.208v-14.701h31.427h63.934h32.003h32.827h161.204h32.828h32.002h63.934h31.427V471.446z"/>
	</g>
</g>
</svg>